<svg width="1440" height="370" viewBox="0 0 1440 370" fill="none" xmlns="http://www.w3.org/2000/svg">
<path d="M0 292.6L48 271.7C96 250.8 192 209 288 215.995C384 222.649 480 278.951 576 271.7C672 264.449 768 195.351 864 174.195C960 153.551 1056 180.849 1152 188.1C1248 195.351 1344 180.849 1440 181.105C1536 180.849 1632 195.351 1728 215.995C1824 237.151 1920 264.449 2016 243.805C2112 222.649 2208 153.551 2304 146.3C2400 139.049 2496 195.351 2592 222.905C2688 250.8 2784 250.8 2880 250.8C2976 250.8 3072 250.8 3168 243.805C3264 237.151 3360 222.649 3456 250.8C3552 278.951 3648 348.049 3744 320.495C3840 292.6 3936 167.2 4032 111.495C4128 55.4489 4224 69.951 4320 132.395C4416 195.351 4512 306.249 4608 348.305C4704 389.849 4800 362.551 4896 334.4C4992 306.249 5088 278.951 5184 229.9C5280 180.849 5376 111.751 5472 97.5048C5568 83.5999 5664 125.4 5760 174.195C5856 222.649 5952 278.951 6048 292.6C6144 306.249 6240 278.951 6336 229.9C6432 180.849 6528 111.751 6624 111.495C6720 111.751 6816 180.849 6864 215.995L6912 250.8V-6.10352e-05H6864C6816 -6.10352e-05 6720 -6.10352e-05 6624 -6.10352e-05C6528 -6.10352e-05 6432 -6.10352e-05 6336 -6.10352e-05C6240 -6.10352e-05 6144 -6.10352e-05 6048 -6.10352e-05C5952 -6.10352e-05 5856 -6.10352e-05 5760 -6.10352e-05C5664 -6.10352e-05 5568 -6.10352e-05 5472 -6.10352e-05C5376 -6.10352e-05 5280 -6.10352e-05 5184 -6.10352e-05C5088 -6.10352e-05 4992 -6.10352e-05 4896 -6.10352e-05C4800 -6.10352e-05 4704 -6.10352e-05 4608 -6.10352e-05C4512 -6.10352e-05 4416 -6.10352e-05 4320 -6.10352e-05C4224 -6.10352e-05 4128 -6.10352e-05 4032 -6.10352e-05C3936 -6.10352e-05 3840 -6.10352e-05 3744 -6.10352e-05C3648 -6.10352e-05 3552 -6.10352e-05 3456 -6.10352e-05C3360 -6.10352e-05 3264 -6.10352e-05 3168 -6.10352e-05C3072 -6.10352e-05 2976 -6.10352e-05 2880 -6.10352e-05C2784 -6.10352e-05 2688 -6.10352e-05 2592 -6.10352e-05C2496 -6.10352e-05 2400 -6.10352e-05 2304 -6.10352e-05C2208 -6.10352e-05 2112 -6.10352e-05 2016 -6.10352e-05C1920 -6.10352e-05 1824 -6.10352e-05 1728 -6.10352e-05C1632 -6.10352e-05 1536 -6.10352e-05 1440 -6.10352e-05C1344 -6.10352e-05 1248 -6.10352e-05 1152 -6.10352e-05C1056 -6.10352e-05 960 -6.10352e-05 864 -6.10352e-05C768 -6.10352e-05 672 -6.10352e-05 576 -6.10352e-05C480 -6.10352e-05 384 -6.10352e-05 288 -6.10352e-05C192 -6.10352e-05 96 -6.10352e-05 48 -6.10352e-05H0V292.6Z" fill="url(#paint0_linear_83_143)"/>
<defs>
<linearGradient id="paint0_linear_83_143" x1="0" y1="-6.10352e-05" x2="0" y2="369.589" gradientUnits="userSpaceOnUse">
<stop stop-color="#6310A4"/>
<stop offset="1" stop-color="#FFA133"/>
</linearGradient>
</defs>
</svg>
