<svg width="1440" height="475" viewBox="0 0 1440 475" fill="none" xmlns="http://www.w3.org/2000/svg">
<path opacity="0.9" d="M0 98.4L48 71.5C96 44.6 192 -9.19998 288 8.69676C384 27.0327 480 115.967 576 188.103C672 259.8 768 313.6 864 286.7C960 259.8 1056 152.2 1152 125.3C1248 98.4 1344 152.2 1440 170.097C1536 188.433 1632 169.767 1728 161.203C1824 152.2 1920 152.2 2016 134.303C2112 115.967 2208 80.8327 2304 71.5C2400 62.1674 2496 80.8327 2592 98.4C2688 115.967 2784 134.633 2880 170.097C2976 206 3072 259.8 3168 286.7C3264 313.6 3360 313.6 3456 322.603C3552 331.167 3648 349.833 3744 331.497C3840 313.6 3936 259.8 4032 196.997C4128 134.633 4224 62.1674 4320 53.6033C4416 44.6 4512 98.4 4608 161.203C4704 223.567 4800 296.033 4896 259.8C4992 223.567 5088 80.8327 5184 26.7033C5280 -26.7673 5376 8.36737 5472 80.5033C5568 152.2 5664 259.8 5760 286.7C5856 313.6 5952 259.8 6048 259.8C6144 259.8 6240 313.6 6336 268.803C6432 223.567 6528 80.8327 6624 62.4968C6720 44.6 6816 152.2 6864 206L6912 259.8V475H6864C6816 475 6720 475 6624 475C6528 475 6432 475 6336 475C6240 475 6144 475 6048 475C5952 475 5856 475 5760 475C5664 475 5568 475 5472 475C5376 475 5280 475 5184 475C5088 475 4992 475 4896 475C4800 475 4704 475 4608 475C4512 475 4416 475 4320 475C4224 475 4128 475 4032 475C3936 475 3840 475 3744 475C3648 475 3552 475 3456 475C3360 475 3264 475 3168 475C3072 475 2976 475 2880 475C2784 475 2688 475 2592 475C2496 475 2400 475 2304 475C2208 475 2112 475 2016 475C1920 475 1824 475 1728 475C1632 475 1536 475 1440 475C1344 475 1248 475 1152 475C1056 475 960 475 864 475C768 475 672 475 576 475C480 475 384 475 288 475C192 475 96 475 48 475H0V98.4Z" fill="url(#paint0_linear_83_115)"/>
<defs>
<linearGradient id="paint0_linear_83_115" x1="0" y1="475" x2="0" y2="0.856323" gradientUnits="userSpaceOnUse">
<stop stop-color="#9041C4"/>
<stop offset="1" stop-color="#FFA133"/>
</linearGradient>
</defs>
</svg>
