<svg width="1440" height="476" viewBox="0 0 1440 476" fill="none" xmlns="http://www.w3.org/2000/svg">
<path d="M0 99.4L48 126.3C96 153.2 192 207 288 197.997C384 189.433 480 116.967 576 126.3C672 135.633 768 224.567 864 251.797C960 278.367 1056 243.233 1152 233.9C1248 224.567 1344 243.233 1440 242.903C1536 243.233 1632 224.567 1728 197.997C1824 170.767 1920 135.633 2016 162.203C2112 189.433 2208 278.367 2304 287.7C2400 297.033 2496 224.567 2592 189.103C2688 153.2 2784 153.2 2880 153.2C2976 153.2 3072 153.2 3168 162.203C3264 170.767 3360 189.433 3456 153.2C3552 116.967 3648 28.0326 3744 63.4967C3840 99.4 3936 260.8 4032 332.497C4128 404.633 4224 385.967 4320 305.597C4416 224.567 4512 81.8326 4608 27.7032C4704 -25.7674 4800 9.36731 4896 45.6C4992 81.8326 5088 116.967 5184 180.1C5280 243.233 5376 332.167 5472 350.503C5568 368.4 5664 314.6 5760 251.797C5856 189.433 5952 116.967 6048 99.4C6144 81.8326 6240 116.967 6336 180.1C6432 243.233 6528 332.167 6624 332.497C6720 332.167 6816 243.233 6864 197.997L6912 153.2V476H6864C6816 476 6720 476 6624 476C6528 476 6432 476 6336 476C6240 476 6144 476 6048 476C5952 476 5856 476 5760 476C5664 476 5568 476 5472 476C5376 476 5280 476 5184 476C5088 476 4992 476 4896 476C4800 476 4704 476 4608 476C4512 476 4416 476 4320 476C4224 476 4128 476 4032 476C3936 476 3840 476 3744 476C3648 476 3552 476 3456 476C3360 476 3264 476 3168 476C3072 476 2976 476 2880 476C2784 476 2688 476 2592 476C2496 476 2400 476 2304 476C2208 476 2112 476 2016 476C1920 476 1824 476 1728 476C1632 476 1536 476 1440 476C1344 476 1248 476 1152 476C1056 476 960 476 864 476C768 476 672 476 576 476C480 476 384 476 288 476C192 476 96 476 48 476H0V99.4Z" fill="url(#paint0_linear_83_114)"/>
<defs>
<linearGradient id="paint0_linear_83_114" x1="0" y1="476" x2="0" y2="0.30835" gradientUnits="userSpaceOnUse">
<stop stop-color="#6310A4"/>
<stop offset="1" stop-color="#FFA133"/>
</linearGradient>
</defs>
</svg>
